<svg xmlns="http://www.w3.org/2000/svg" version="1.1" xmlns:xlink="http://www.w3.org/1999/xlink" xmlns:svgjs="http://svgjs.dev/svgjs" width="1920" height="1080" preserveAspectRatio="none" viewBox="0 0 1920 1080"><g mask="url(&quot;#SvgjsMask1035&quot;)" fill="none"><rect width="1920" height="1080" x="0" y="0" fill="rgba(247, 169, 107, 1)"></rect><path d="M 0,371 C 128,345 384,223.2 640,241 C 896,258.8 1024,461.4 1280,460 C 1536,458.6 1792,279.2 1920,234L1920 1080L0 1080z" fill="rgba(236, 144, 88, 1)"></path><path d="M 0,700 C 76.8,729.4 230.4,832.8 384,847 C 537.6,861.2 614.4,760 768,771 C 921.6,782 998.4,912.2 1152,902 C 1305.6,891.8 1382.4,708.4 1536,720 C 1689.6,731.6 1843.2,912 1920,960L1920 1080L0 1080z" fill="rgba(225, 120, 70, 1)"></path></g><defs><mask id="SvgjsMask1035"><rect width="1920" height="1080" fill="#ffffff"></rect></mask></defs></svg>